<svg id="SJdPh8eFM" version="1.1" width="400" height="400" xmlns="http://www.w3.org/2000/svg" xmlns:xlink="http://www.w3.org/1999/xlink" style="display: block;">
    <style type="text/css">
        @-webkit-keyframes HJedwnLgtM_SJAAn8gYf_Animation{0%{-webkit-transform: rotate(45deg);transform: rotate(45deg);}16.67%{-webkit-transform: rotate(0deg);transform: rotate(0deg);}33.33%{-webkit-transform: rotate(45deg);transform: rotate(45deg);}50%{-webkit-transform: rotate(0deg);transform: rotate(0deg);}66.67%{-webkit-transform: rotate(45deg);transform: rotate(45deg);}83.33%{-webkit-transform: rotate(0deg);transform: rotate(0deg);}100%{-webkit-transform: rotate(45deg);transform: rotate(45deg);}}@keyframes HJedwnLgtM_SJAAn8gYf_Animation{0%{-webkit-transform: rotate(45deg);transform: rotate(45deg);}16.67%{-webkit-transform: rotate(0deg);transform: rotate(0deg);}33.33%{-webkit-transform: rotate(45deg);transform: rotate(45deg);}50%{-webkit-transform: rotate(0deg);transform: rotate(0deg);}66.67%{-webkit-transform: rotate(45deg);transform: rotate(45deg);}83.33%{-webkit-transform: rotate(0deg);transform: rotate(0deg);}100%{-webkit-transform: rotate(45deg);transform: rotate(45deg);}}#SJdPh8eFM *{-webkit-animation-duration: 3s;animation-duration: 3s;-webkit-animation-timing-function: cubic-bezier(0, 0, 1, 1);animation-timing-function: cubic-bezier(0, 0, 1, 1);animation-iteration-count: infinite;transform-box: fill-box;-webkit-transform-origin: 50% 50%;transform-origin: 50% 50%;}#HybdPhUeFM{stroke: none;fill: #000000;}#HJM_vnUeYM{stroke: none;fill: #373737;}#BJmdPhLxKG{stroke: none;fill: #b6b6b6;}#rJ4uP2UgYz{stroke: none;fill: #fcfcfc;}#BJBOD3IlYM{stroke: none;fill: #731717;}#ByLuvhLgtM{stroke: none;fill: #bd3736;}#rkw_w3UxtM{stroke: none;fill: #ff0000;}#HJedwnLgtM_SJAAn8gYf{-webkit-animation-name: HJedwnLgtM_SJAAn8gYf_Animation;animation-name: HJedwnLgtM_SJAAn8gYf_Animation;-webkit-transform-origin: undefined;transform-origin: undefined;}
    </style>
    <g id="HJedwnLgtM_SJAAn8gYf" data-animator-group="true" data-animator-type="1">
        <g id="HJedwnLgtM">
            <path id="HybdPhUeFM" d="M347.448 153.800 C 347.591 154.460,347.866 155.270,348.059 155.600 C 348.284 155.984,348.318 155.768,348.152 155.000 C 348.009 154.340,347.734 153.530,347.541 153.200 C 347.316 152.816,347.282 153.032,347.448 153.800 M354.537 196.600 C 354.539 198.360,354.609 199.030,354.693 198.089 C 354.778 197.149,354.777 195.709,354.691 194.889 C 354.605 194.070,354.536 194.840,354.537 196.600 M45.309 200.000 C 45.309 200.990,45.387 201.395,45.482 200.900 C 45.578 200.405,45.578 199.595,45.482 199.100 C 45.387 198.605,45.309 199.010,45.309 200.000 M354.531 203.400 C 354.533 204.940,354.605 205.521,354.692 204.691 C 354.779 203.861,354.777 202.601,354.689 201.891 C 354.600 201.181,354.529 201.860,354.531 203.400 M194.691 354.689 C 195.401 354.777,196.661 354.779,197.491 354.692 C 198.321 354.605,197.740 354.533,196.200 354.531 C 194.660 354.529,193.981 354.600,194.691 354.689 M202.291 354.689 C 203.001 354.777,204.261 354.779,205.091 354.692 C 205.921 354.605,205.340 354.533,203.800 354.531 C 202.260 354.529,201.581 354.600,202.291 354.689 " fill-rule="evenodd"/>
            <path id="HJM_vnUeYM" d="M312.600 147.454 C 258.173 166.990,246.597 171.081,246.200 170.924 C 245.980 170.837,244.990 169.563,244.000 168.094 C 241.765 164.777,236.304 159.211,232.624 156.501 C 196.392 129.812,146.200 154.947,145.829 199.965 C 145.783 205.616,145.661 206.995,145.186 207.273 C 144.695 207.561,124.344 214.887,98.000 224.260 C 84.721 228.984,80.230 230.588,70.000 234.261 C 64.170 236.354,57.600 238.710,55.400 239.497 C 53.200 240.284,51.335 240.979,51.255 241.042 C 51.066 241.191,52.029 245.221,52.440 246.000 C 52.614 246.330,53.320 248.400,54.008 250.600 C 54.697 252.800,55.599 255.320,56.015 256.200 C 56.430 257.080,57.200 258.880,57.727 260.200 C 58.255 261.520,58.847 262.558,59.043 262.506 C 59.239 262.454,60.930 261.851,62.800 261.166 C 64.670 260.481,69.620 258.701,73.800 257.210 C 83.824 253.635,109.141 244.572,118.200 241.315 C 122.160 239.892,128.640 237.586,132.600 236.191 C 136.560 234.796,142.860 232.563,146.600 231.229 C 150.340 229.895,153.519 228.802,153.665 228.802 C 153.811 228.801,154.797 230.015,155.856 231.500 C 186.538 274.499,253.449 252.585,254.117 199.319 L 254.200 192.706 263.000 189.539 C 267.840 187.797,273.510 185.764,275.600 185.022 C 277.690 184.279,286.420 181.155,295.000 178.081 C 303.580 175.007,317.440 170.054,325.800 167.074 C 334.160 164.094,342.451 161.120,344.225 160.466 C 345.999 159.811,347.824 159.213,348.281 159.138 C 349.139 158.996,346.012 148.056,343.704 143.124 C 343.260 142.176,342.563 140.455,342.155 139.300 C 341.746 138.145,341.319 137.214,341.206 137.230 C 341.093 137.247,328.220 141.848,312.600 147.454 M206.627 160.421 C 240.134 166.367,251.762 208.196,226.096 230.455 C 204.578 249.115,170.507 239.413,161.846 212.158 C 152.826 183.774,177.512 155.255,206.627 160.421 M199.300 354.676 C 199.685 354.776,200.315 354.776,200.700 354.676 C 201.085 354.575,200.770 354.493,200.000 354.493 C 199.230 354.493,198.915 354.575,199.300 354.676 " fill-rule="evenodd"/>
            <path id="BJmdPhLxKG" d="M344.089 160.481 C 339.477 162.196,340.209 162.302,345.034 160.618 C 347.215 159.858,348.640 159.238,348.200 159.243 C 347.760 159.247,345.910 159.804,344.089 160.481 M194.200 160.262 C 191.074 160.922,187.985 161.718,188.100 161.833 C 188.176 161.909,189.939 161.620,192.019 161.191 C 197.007 160.162,203.018 160.165,208.000 161.200 C 212.257 162.084,212.631 162.125,211.200 161.543 C 208.186 160.319,197.680 159.527,194.200 160.262 M183.371 163.553 C 174.285 167.862,167.796 174.349,163.585 183.335 C 162.713 185.195,162.008 186.961,162.017 187.259 C 162.026 187.557,162.448 186.810,162.954 185.600 C 167.662 174.342,174.440 167.771,186.800 162.482 C 187.350 162.247,187.530 162.047,187.200 162.038 C 186.870 162.029,185.147 162.711,183.371 163.553 M213.200 162.482 C 230.709 169.974,239.370 182.381,239.392 200.000 C 239.446 243.753,179.919 254.967,162.954 214.400 C 162.448 213.190,162.026 212.449,162.017 212.754 C 161.986 213.753,165.550 220.829,167.349 223.341 C 180.964 242.349,208.531 245.687,226.096 230.455 C 248.115 211.360,243.373 176.242,217.094 163.794 C 215.012 162.807,213.058 162.012,212.754 162.027 C 212.449 162.042,212.650 162.247,213.200 162.482 M329.090 165.876 C 323.199 167.986,318.443 169.776,318.521 169.854 C 318.677 170.010,321.742 168.974,332.762 165.039 C 339.548 162.616,341.137 161.968,340.167 162.020 C 339.965 162.030,334.980 163.766,329.090 165.876 M304.200 174.762 C 296.940 177.361,286.680 181.040,281.400 182.938 C 276.120 184.836,267.840 187.810,263.000 189.547 L 254.200 192.706 254.119 199.178 C 254.072 202.977,253.783 207.017,253.419 208.957 C 252.672 212.943,252.675 213.705,253.427 211.000 C 254.229 208.117,254.872 201.057,254.726 196.744 L 254.600 193.029 259.200 191.375 C 261.730 190.466,267.940 188.233,273.000 186.413 C 278.060 184.592,290.196 180.244,299.969 176.749 C 309.743 173.254,317.828 170.306,317.936 170.197 C 318.415 169.718,316.646 170.306,304.200 174.762 M161.248 189.689 C 159.482 196.222,159.623 206.473,161.543 211.200 C 162.125 212.631,162.084 212.257,161.200 208.000 C 160.165 203.018,160.162 197.007,161.191 192.019 C 162.008 188.060,162.039 186.759,161.248 189.689 M354.093 189.600 C 354.093 190.370,354.175 190.685,354.276 190.300 C 354.376 189.915,354.376 189.285,354.276 188.900 C 354.175 188.515,354.093 188.830,354.093 189.600 M251.254 217.524 C 245.836 233.179,233.818 245.380,218.246 251.036 C 214.073 252.551,214.061 252.877,218.230 251.456 C 231.129 247.062,242.565 236.897,248.893 224.200 C 250.616 220.742,252.645 215.312,252.332 214.998 C 252.249 214.915,251.764 216.052,251.254 217.524 M151.800 229.424 C 151.140 229.747,150.932 229.919,151.337 229.804 C 153.864 229.092,153.799 229.067,155.266 231.275 C 161.032 239.947,171.002 247.569,181.524 251.350 C 186.117 253.000,185.866 252.552,181.202 250.777 C 171.016 246.899,161.894 239.961,155.856 231.500 C 153.792 228.607,153.633 228.526,151.800 229.424 M149.200 230.287 C 148.870 230.411,146.567 231.228,144.082 232.104 C 141.596 232.980,139.637 233.770,139.727 233.861 C 139.901 234.035,149.966 230.567,150.323 230.210 C 150.584 229.949,149.998 229.989,149.200 230.287 M124.600 239.025 C 117.560 241.549,108.698 244.723,104.906 246.079 C 101.114 247.435,98.084 248.618,98.174 248.707 C 98.339 248.873,137.597 234.936,137.944 234.589 C 138.414 234.119,136.616 234.717,124.600 239.025 M91.800 250.740 C 88.940 251.787,84.657 253.331,82.283 254.171 C 79.909 255.012,78.033 255.766,78.114 255.847 C 78.342 256.075,97.042 249.492,97.517 249.017 C 97.980 248.554,96.812 248.906,91.800 250.740 M213.162 252.571 C 211.860 253.874,196.644 254.460,190.816 253.432 C 187.087 252.775,185.950 252.866,189.196 253.562 C 195.645 254.945,202.946 255.010,209.714 253.746 C 212.953 253.140,215.109 252.471,213.967 252.425 C 213.618 252.411,213.256 252.477,213.162 252.571 M69.200 258.815 C 59.779 262.215,59.133 262.466,59.317 262.650 C 59.408 262.741,61.894 261.941,64.841 260.871 C 67.789 259.801,71.595 258.430,73.300 257.823 C 76.060 256.840,77.003 256.367,76.100 256.417 C 75.935 256.426,72.830 257.505,69.200 258.815 " fill-rule="evenodd"/>
            <path id="rJ4uP2UgYz" d="M344.600 160.807 C 342.180 161.648,336.870 163.535,332.800 165.002 C 328.730 166.469,323.690 168.267,321.600 168.997 C 318.102 170.220,295.274 178.401,273.000 186.413 C 267.940 188.233,261.730 190.462,259.200 191.368 L 254.600 193.013 254.555 199.607 C 254.229 246.855,200.537 271.623,164.277 241.252 C 160.934 238.452,157.544 234.701,155.283 231.300 C 153.636 228.822,154.079 228.894,149.927 230.435 C 148.097 231.114,143.900 232.617,140.600 233.775 C 131.659 236.912,98.503 248.739,96.200 249.613 C 95.100 250.030,90.870 251.549,86.800 252.988 C 82.730 254.427,77.690 256.227,75.600 256.987 C 73.510 257.748,68.920 259.396,65.400 260.651 C 61.880 261.905,58.931 262.986,58.846 263.053 C 58.622 263.230,59.650 265.600,59.951 265.600 C 60.090 265.600,60.452 266.185,60.755 266.900 C 62.424 270.841,63.404 272.800,63.707 272.800 C 63.894 272.800,63.944 272.968,63.817 273.172 C 63.691 273.377,63.764 273.654,63.980 273.788 C 64.197 273.922,64.926 275.187,65.600 276.600 C 66.274 278.013,67.057 279.401,67.339 279.684 C 67.621 279.968,68.398 281.196,69.065 282.414 C 69.732 283.631,70.756 285.143,71.339 285.772 C 71.923 286.402,72.400 287.161,72.400 287.458 C 72.400 287.756,72.568 288.000,72.773 288.000 C 72.978 288.000,73.247 288.315,73.371 288.700 C 73.494 289.085,74.001 289.890,74.498 290.490 C 74.994 291.089,75.850 292.218,76.400 292.998 C 76.950 293.778,77.850 294.924,78.400 295.544 C 80.018 297.370,80.800 298.391,80.800 298.676 C 80.800 298.823,81.385 299.534,82.100 300.256 C 82.815 300.978,84.300 302.580,85.400 303.816 C 86.500 305.053,88.840 307.489,90.600 309.229 C 92.360 310.969,94.610 313.207,95.600 314.202 C 96.590 315.197,97.575 316.008,97.790 316.005 C 98.004 316.002,98.724 316.596,99.390 317.325 C 100.055 318.054,101.199 319.066,101.931 319.575 C 102.664 320.083,103.678 320.882,104.185 321.350 C 105.659 322.710,110.437 326.175,112.441 327.338 C 113.454 327.926,114.607 328.766,115.003 329.204 C 115.400 329.642,115.863 330.000,116.034 330.000 C 116.204 330.000,117.391 330.694,118.672 331.542 C 122.572 334.126,132.214 339.200,133.224 339.200 C 133.431 339.200,133.600 339.348,133.600 339.529 C 133.600 339.866,136.613 341.301,138.400 341.814 C 138.950 341.972,139.893 342.352,140.496 342.659 C 141.099 342.965,141.646 343.168,141.713 343.108 C 141.780 343.049,142.277 343.285,142.818 343.634 C 143.358 343.982,145.690 344.863,148.000 345.592 C 150.310 346.321,152.404 347.075,152.653 347.268 C 153.004 347.541,161.751 349.870,165.200 350.610 C 165.530 350.681,165.890 350.780,166.000 350.830 C 166.110 350.881,166.380 350.957,166.600 351.000 C 166.820 351.042,167.270 351.178,167.600 351.301 C 167.930 351.424,169.460 351.730,171.000 351.982 C 172.540 352.233,174.250 352.514,174.800 352.606 C 176.649 352.915,182.176 353.623,185.000 353.913 C 193.603 354.796,218.946 353.975,225.600 352.599 C 226.150 352.485,227.860 352.195,229.400 351.954 C 230.940 351.714,232.397 351.357,232.637 351.162 C 232.877 350.967,233.180 350.913,233.310 351.044 C 233.440 351.174,233.784 351.130,234.073 350.946 C 234.363 350.763,234.690 350.602,234.800 350.589 C 236.160 350.428,246.333 347.675,247.400 347.179 C 247.840 346.974,250.449 346.070,253.197 345.170 C 255.946 344.269,258.286 343.399,258.397 343.236 C 258.509 343.073,260.355 342.264,262.500 341.439 C 264.645 340.613,266.400 339.772,266.400 339.569 C 266.400 339.366,266.579 339.200,266.798 339.200 C 267.299 339.200,272.229 336.781,275.400 334.979 C 276.720 334.229,278.250 333.391,278.800 333.116 C 279.350 332.841,280.502 332.117,281.360 331.508 C 282.218 330.899,283.163 330.400,283.460 330.400 C 283.757 330.400,284.000 330.242,284.000 330.049 C 284.000 329.855,284.540 329.473,285.200 329.200 C 285.860 328.927,286.400 328.553,286.400 328.370 C 286.400 328.187,287.021 327.743,287.781 327.382 C 288.541 327.022,289.610 326.312,290.156 325.805 C 290.703 325.299,291.247 324.981,291.366 325.099 C 291.484 325.218,291.693 325.022,291.830 324.665 C 291.967 324.308,292.737 323.613,293.540 323.121 C 295.140 322.140,295.372 321.961,297.330 320.200 C 298.064 319.540,299.369 318.460,300.230 317.800 C 303.812 315.054,310.955 307.959,317.545 300.600 C 318.136 299.940,319.149 298.615,319.796 297.654 C 320.443 296.694,321.200 295.822,321.478 295.715 C 321.756 295.608,322.383 294.863,322.871 294.060 C 323.359 293.257,324.399 291.790,325.181 290.800 C 326.684 288.898,327.433 287.785,327.873 286.800 C 328.021 286.470,328.268 286.110,328.423 286.000 C 328.577 285.890,329.580 284.386,330.652 282.658 C 331.723 280.929,332.914 279.039,333.298 278.458 C 333.682 277.876,334.358 276.680,334.801 275.800 C 335.244 274.920,336.066 273.390,336.629 272.400 C 337.192 271.410,338.038 269.700,338.511 268.600 C 338.983 267.500,339.573 266.390,339.822 266.134 C 340.071 265.878,340.501 265.068,340.778 264.334 C 341.054 263.600,341.418 262.640,341.586 262.200 C 341.754 261.760,342.541 260.043,343.335 258.384 C 344.130 256.725,344.843 255.015,344.920 254.584 C 345.200 253.026,346.892 247.789,347.263 247.334 C 347.573 246.952,349.980 238.005,350.581 235.000 C 350.669 234.560,350.775 234.110,350.816 234.000 C 350.858 233.890,350.934 233.620,350.985 233.400 C 351.036 233.180,351.121 232.910,351.172 232.800 C 351.224 232.690,351.321 232.240,351.388 231.800 C 351.455 231.360,351.786 229.740,352.125 228.200 C 354.840 215.848,354.897 176.791,352.206 172.408 C 352.136 172.294,351.954 171.210,351.802 170.000 C 351.649 168.790,351.363 167.603,351.166 167.363 C 350.968 167.123,350.921 166.812,351.060 166.673 C 351.200 166.533,351.132 166.190,350.910 165.910 C 350.687 165.629,350.287 164.218,350.021 162.772 C 349.325 158.995,349.566 159.082,344.600 160.807 M191.930 161.188 C 161.563 167.592,150.011 204.444,171.185 227.364 C 182.400 239.503,201.706 243.062,217.052 235.820 C 243.864 223.166,247.585 186.008,223.813 168.297 C 214.666 161.482,202.937 158.867,191.930 161.188 " fill-rule="evenodd"/>
            <path id="BJBOD3IlYM" d="M169.200 48.400 C 168.376 48.664,168.341 48.726,169.000 48.754 C 169.440 48.773,170.070 48.613,170.400 48.400 C 171.101 47.947,170.614 47.947,169.200 48.400 M304.600 86.400 C 305.459 87.280,306.252 88.000,306.362 88.000 C 306.472 88.000,305.859 87.280,305.000 86.400 C 304.141 85.520,303.348 84.800,303.238 84.800 C 303.128 84.800,303.741 85.520,304.600 86.400 M313.983 95.700 C 314.964 96.745,315.819 97.600,315.883 97.600 C 316.184 97.600,315.866 97.241,314.100 95.583 L 312.200 93.800 313.983 95.700 M48.244 230.200 C 48.573 231.671,48.802 231.990,48.794 230.967 C 48.791 230.545,48.605 229.930,48.382 229.600 C 48.085 229.162,48.048 229.324,48.244 230.200 " fill-rule="evenodd"/>
            <path id="ByLuvhLgtM" d="M189.000 45.878 C 185.644 46.054,173.730 47.544,171.800 48.029 C 170.920 48.249,168.130 48.869,165.600 49.405 C 159.080 50.786,147.281 54.508,142.263 56.768 C 140.757 57.445,139.372 58.000,139.184 58.000 C 138.263 58.000,122.270 66.143,119.783 67.879 C 119.132 68.333,116.710 69.933,114.400 71.434 C 112.090 72.935,110.140 74.307,110.067 74.482 C 109.993 74.657,109.693 74.800,109.400 74.800 C 109.107 74.800,108.807 74.944,108.733 75.121 C 108.660 75.297,107.859 75.972,106.953 76.621 C 98.419 82.733,86.602 94.310,78.819 104.183 C 70.566 114.652,61.179 130.653,57.355 140.768 C 56.821 142.181,56.226 143.531,56.032 143.768 C 55.838 144.006,55.007 146.360,54.185 149.000 C 53.363 151.640,52.550 153.980,52.379 154.200 C 52.208 154.420,52.065 154.738,52.060 154.908 C 52.056 155.077,51.747 156.247,51.374 157.508 C 50.310 161.100,49.874 163.007,47.771 173.293 C 45.046 186.620,45.056 213.597,47.791 226.778 C 50.175 238.263,50.824 240.800,51.382 240.800 C 51.655 240.800,53.571 240.184,55.639 239.432 C 57.708 238.679,64.170 236.351,70.000 234.259 C 80.250 230.581,84.840 228.942,98.000 224.260 C 124.344 214.887,144.695 207.561,145.186 207.273 C 145.661 206.995,145.783 205.616,145.829 199.965 C 146.200 154.947,196.392 129.812,232.624 156.501 C 236.304 159.211,241.765 164.777,244.000 168.094 C 244.990 169.563,245.980 170.837,246.200 170.925 C 246.420 171.013,255.510 167.900,266.400 164.007 C 277.290 160.114,298.170 152.650,312.800 147.420 C 327.430 142.191,339.800 137.704,340.289 137.451 C 341.169 136.994,341.146 136.927,337.769 130.195 C 334.373 123.423,333.383 121.723,328.501 114.269 C 316.211 95.505,300.654 80.740,278.720 67.024 C 268.330 60.526,248.565 52.551,236.000 49.786 C 233.470 49.229,230.320 48.518,229.000 48.204 C 220.492 46.185,202.758 45.153,189.000 45.878 " fill-rule="evenodd"/>
            <path id="rkw_w3UxtM" d="" fill-rule="evenodd"/>
        </g>
    </g>
</svg>